<?xml version="1.0" encoding="UTF-8" standalone="no"?>
<!-- Uploaded to: SVG Repo, www.svgrepo.com, Generator: SVG Repo Mixer Tools -->

<svg
   width="800px"
   height="800px"
   viewBox="0 0 1024 1024"
   version="1.1"
   id="svg1"
   sodipodi:docname="trash.svg"
   inkscape:version="1.3 (0e150ed6c4, 2023-07-21)"
   xmlns:inkscape="http://www.inkscape.org/namespaces/inkscape"
   xmlns:sodipodi="http://sodipodi.sourceforge.net/DTD/sodipodi-0.dtd"
   xmlns="http://www.w3.org/2000/svg"
   xmlns:svg="http://www.w3.org/2000/svg">
  <defs
     id="defs1" />
  <sodipodi:namedview
     id="namedview1"
     pagecolor="#ffffff"
     bordercolor="#000000"
     borderopacity="0.25"
     inkscape:showpageshadow="2"
     inkscape:pageopacity="0.0"
     inkscape:pagecheckerboard="0"
     inkscape:deskcolor="#d1d1d1"
     inkscape:zoom="1.43625"
     inkscape:cx="400"
     inkscape:cy="400"
     inkscape:window-width="2560"
     inkscape:window-height="1369"
     inkscape:window-x="2552"
     inkscape:window-y="-8"
     inkscape:window-maximized="1"
     inkscape:current-layer="svg1" />
  <path
     fill="#000000"
     d="M 160,256 H 96 C 78.326876,256 64.000014,241.67311 64.000014,224 64.000014,206.32689 78.326876,192 96,192 H 352 V 95.936 c 0,-17.673112 14.32689,-32 32,-32 h 256 c 17.67311,0 32,14.326888 32,32 V 192 h 256 c 17.67312,0 31.99999,14.32689 31.99999,32 0,17.67311 -14.32687,32 -31.99999,32 h -64 v 672 c 0,17.67311 -14.32689,32 -32,32 H 192 c -17.67311,0 -32,-14.32689 -32,-32 z M 608,192 V 128 H 416 v 64 z M 239.36,880.64 H 784.64 V 271.36 H 239.36 Z M 416,768 c -17.67311,0 -32,-14.32689 -32,-32 V 416 c 0,-17.67312 14.32689,-31.99999 32,-31.99999 17.67311,0 32,14.32687 32,31.99999 v 320 c 0,17.67311 -14.32689,32 -32,32 z m 192,0 c -17.67311,0 -32,-14.32689 -32,-32 V 416 c 0,-17.67312 14.32689,-31.99999 32,-31.99999 17.67311,0 32,14.32687 32,31.99999 v 320 c 0,17.67311 -14.32689,32 -32,32 z"
     id="path1"
     sodipodi:nodetypes="cssscsssscssscsssscccccccccccssssssssssssss" />
</svg>
