<?xml version="1.0" encoding="UTF-8" standalone="no"?>
<!-- Uploaded to: SVG Repo, www.svgrepo.com, Generator: SVG Repo Mixer Tools -->

<svg
   fill="#000000"
   width="800px"
   height="800px"
   viewBox="0 0 24 24"
   version="1.1"
   id="svg1"
   sodipodi:docname="move.svg"
   inkscape:version="1.3 (0e150ed6c4, 2023-07-21)"
   xmlns:inkscape="http://www.inkscape.org/namespaces/inkscape"
   xmlns:sodipodi="http://sodipodi.sourceforge.net/DTD/sodipodi-0.dtd"
   xmlns="http://www.w3.org/2000/svg"
   xmlns:svg="http://www.w3.org/2000/svg">
  <defs
     id="defs1" />
  <sodipodi:namedview
     id="namedview1"
     pagecolor="#ffffff"
     bordercolor="#000000"
     borderopacity="0.25"
     inkscape:showpageshadow="2"
     inkscape:pageopacity="0.0"
     inkscape:pagecheckerboard="0"
     inkscape:deskcolor="#d1d1d1"
     inkscape:zoom="1.43625"
     inkscape:cx="400"
     inkscape:cy="400"
     inkscape:window-width="2560"
     inkscape:window-height="1417"
     inkscape:window-x="5112"
     inkscape:window-y="-6"
     inkscape:window-maximized="1"
     inkscape:current-layer="svg1" />
  <path
     fill-rule="evenodd"
     d="M 4.1139706,4.8308824 C 3.9819908,4.8308824 3.875,4.9378731 3.875,5.0698529 V 18.930147 c 0,0.131912 0.1070588,0.238971 0.2389706,0.238971 H 19.886029 c 0.13198,0 0.238971,-0.106991 0.238971,-0.238971 V 7.8772794 c 0,-0.1319798 -0.106991,-0.2389706 -0.238971,-0.2389706 H 11.78875 c -0.553658,1.677e-4 -1.071532,-0.2736219 -1.383162,-0.73125 L 9.0635294,4.9360294 C 9.0189217,4.8700335 8.9443628,4.8306033 8.8647059,4.8308824 Z M 2,4.75 C 2,3.784 2.784,3 3.75,3 h 4.971 c 0.58,0 1.12,0.286 1.447,0.765 l 1.404,2.063 c 0.04647,0.068748 0.12402,0.1099591 0.207,0.11 h 8.471 c 0.966,0 1.75,0.783 1.75,1.75 V 19.25 C 22,20.216498 21.216498,21 20.25,21 H 3.75 C 2.7835017,21 2,20.216498 2,19.25 Z"
     id="path1"
     sodipodi:nodetypes="ssssssssccccsssscccsssssss" />
</svg>
