<?xml version="1.0" encoding="UTF-8" standalone="no"?>
<svg
   viewBox="0 0 184.252 184.252"
   id="svg15"
   height="184.252"
   width="184.252"
   version="1.1"
   sodipodi:docname="icon - r - c.svg"
   xml:space="preserve"
   inkscape:version="1.3 (0e150ed6c4, 2023-07-21)"
   xmlns:inkscape="http://www.inkscape.org/namespaces/inkscape"
   xmlns:sodipodi="http://sodipodi.sourceforge.net/DTD/sodipodi-0.dtd"
   xmlns="http://www.w3.org/2000/svg"
   xmlns:svg="http://www.w3.org/2000/svg"
   xmlns:rdf="http://www.w3.org/1999/02/22-rdf-syntax-ns#"
   xmlns:cc="http://creativecommons.org/ns#"
   xmlns:dc="http://purl.org/dc/elements/1.1/"><sodipodi:namedview
     id="namedview1"
     pagecolor="#ffffff"
     bordercolor="#000000"
     borderopacity="0.25"
     inkscape:showpageshadow="2"
     inkscape:pageopacity="0.0"
     inkscape:pagecheckerboard="0"
     inkscape:deskcolor="#d1d1d1"
     inkscape:zoom="3.1329752"
     inkscape:cx="78.679206"
     inkscape:cy="80.913504"
     inkscape:window-width="2560"
     inkscape:window-height="1369"
     inkscape:window-x="2552"
     inkscape:window-y="-8"
     inkscape:window-maximized="1"
     inkscape:current-layer="svg15" /><metadata
     id="metadata21"><rdf:RDF><cc:Work
         rdf:about=""><dc:format>image/svg+xml</dc:format><dc:type
           rdf:resource="http://purl.org/dc/dcmitype/StillImage" /></cc:Work></rdf:RDF></metadata><defs
     id="defs19" /><g
     style="fill:#484848;fill-opacity:1"
     id="g1"
     transform="matrix(3.1542629,0,0,3.1542629,94.802994,10.026597)" /><path
     id="path2-2"
     style="fill:#ffffff;fill-rule:evenodd;stroke-width:0.976445"
     d="M 2.9290934,32.546586 V 155.12687 H 181.323 V 32.546586 Z" /><g
     id="Layer1000-1"
     transform="matrix(0.97645111,0,0,0.97645111,2.2166789,3.419243)"><path
       id="path4-1"
       style="fill:#9f9f9f;fill-rule:evenodd"
       d="M 24.0562,155.3664 V 143.792 h 136.0426 v 11.5744 z" /><path
       id="path6-3"
       style="fill:#9f9f9f;fill-rule:evenodd"
       d="m 38.8839,29.8297 v 10.862 h 106.3873 v -10.862 z" /><path
       id="path8-5"
       style="fill:#484848;fill-rule:evenodd"
       d="M 24.0562,155.3664 V 45.7247 l 60.3407,60.3407 h 15.3613 l 60.3406,-60.3407 v 109.6417 h 23.3267 V 29.8297 H 145.2712 L 92.0775,83.0234 38.8839,29.8297 H 0.7295 v 125.5367 z" /><path
       id="path10-7"
       style="fill:#9f9f9f;fill-rule:evenodd"
       d="M 24.0562,143.792 V 116.6783 L 59.533,81.2015 74.8947,96.5625 27.6652,143.792 Z" /><path
       id="path12-7"
       style="fill:#9f9f9f;fill-rule:evenodd"
       d="m 160.0988,143.792 v -27.1137 l -35.4767,-35.4768 -15.3617,15.361 47.2295,47.2295 z" /></g><ellipse
     style="fill:#484848;fill-opacity:1;stroke-width:13.4194"
     id="path3-3"
     cx="93.926155"
     cy="93.434204"
     rx="42.347172"
     ry="43.35825" /><path
     d="M 97.726969,87.909915 111.8769,77.3686 c 1.63171,-1.632358 1.63171,-3.276727 0,-4.908806 L 97.726969,61.918204 c -0.442112,-0.318636 -0.99405,-0.50312 -1.58345,-0.50312 -1.484724,0 -2.674924,1.152984 -2.674924,2.577586 v 4.785477 c -14.235033,0.03744 -25.770993,11.560175 -25.770993,25.771389 0,14.236104 11.571849,25.770834 25.832234,25.770834 13.241204,0 24.152084,-9.92745 25.660734,-22.714946 0.0113,-0.03688 0.0511,-0.430437 0.0511,-0.601743 0,-1.349636 -1.10504,-2.454145 -2.46657,-2.454145 h -6.18526 c -2.02518,0 -3.55918,1.398706 -3.76758,2.564511 -1.19021,6.234373 -6.68862,10.934653 -13.290675,10.934653 -7.473605,0 -13.524367,-6.03784 -13.524367,-13.499164 0,-7.437615 6.013668,-13.462238 13.462986,-13.499262 v 4.786568 c 0,1.423802 1.190189,2.576642 2.674924,2.576642 0.589228,0 1.141049,-0.183553 1.583299,-0.503575 z"
     id="path1"
     style="fill:#ffffff;fill-opacity:1;stroke-width:0.135063" /></svg>
